ply
format ascii 1.0
comment VCGLIB generated
element vertex 284
property float x
property float y
property float z
property float nx
property float ny
property float nz
element face 564
property list uchar int vertex_indices
end_header
-1.52316 64.52 8.13 -1.3472 4.68571 3.66282 
-6.85315 65.28 -0 -2.09017 5.74013 -2.98023e-008 
31.7468 100.08 0 -2.54096 3.48079 1.49012e-007 
39.3669 98.81 6.1 -1.21773 2.65087 4.83189 
64.7668 116.08 0 -1.16092 3.64853 -2.38419e-007 
68.0768 113.04 3.56 -0.350232 2.53079 5.17204 
96.2668 118.37 -0 0.331079 2.67088 1.19209e-007 
98.0468 114.05 2.06233 0.604622 1.42645 5.85181 
114.297 113.54 -0 0.564181 0.433087 0 
96.7768 54.87 6.5171 2.68837 3.18642 4.50802 
96.2668 72.9 0 2.12645 1.0149 -2.98023e-007 
106.937 48.01 0 3.67675 4.639 1.19209e-007 
57.1469 62.74 11.68 0.63955 2.68811 5.41893 
72.1368 84.08 6.63335 1.01981 0.604051 6.12261 
82.8069 95.76 4.01288 0.816054 0.171843 6.20527 
-173.396 -11.112 -0 -3.97218 4.65051 -5.96046e-008 
-179.36 -18.5136 7.62 -4.10794 2.74657 2.80387 
-184.738 -21.8899 -0 -4.62284 2.18161 -3.72529e-008 
-154.622 3.13223 -0 -3.45113 5.08646 1.67638e-007 
-158.945 -2.88046 13.97 -3.52912 3.95196 2.62986 
-132.665 15.8376 5.33 -3.16052 5.20814 1.52902 
-91.583 40.962 -0 -2.52294 5.42577 0 
-93.1038 34.9774 18.29 -2.30257 4.62254 2.97478 
-131.827 13.721 13.97 -3.04917 5.08231 2.01933 
-47.3554 57.9379 -0 -1.65065 5.80069 0 
-48.5549 52.6792 22.35 -1.09495 4.26933 3.27363 
-4.57315 49.54 24.64 -0.0629353 3.95543 4.80375 
53.5968 48.01 26.67 0.644427 3.29331 5.00831 
109.727 36.07 20.32 1.61543 3.93187 4.31524 
164.598 24.1658 11.68 1.66155 4.82257 3.29457 
164.309 28.407 0 1.70165 5.67406 -1.19209e-007 
205.338 15.5377 0 1.84331 4.74081 -5.96046e-008 
204.679 3.80705 14.73 1.85006 3.59671 4.64178 
229.959 6.92648 0 1.80284 3.8894 0 
230.871 -8.85446 11.94 1.8083 2.22485 5.41184 
253.444 -2.32179 0 1.59477 3.15401 -1.19209e-007 
255.28 -16.9703 7.87 0.565289 2.85564 5.44555 
272.059 -11.2172 0 1.7765 3.74004 1.78814e-007 
274.109 -20.2412 9.65 2.29296 4.16899 3.55658 
284.51 -24.5968 0 4.00813 4.21499 0 
281.052 -26.8431 9.37588 3.25673 4.65804 2.54451 
-134.884 7.60313 22.35 -2.64217 4.507 3.33332 
-118.785 4.99101 32.77 -1.5362 3.34753 4.98037 
-87.9324 20.5296 31.7052 -1.48358 3.29126 5.10443 
-49.6027 33.9115 32 -0.676882 3.04958 5.43962 
-4.57315 31.76 35.81 -0.0404646 3.03361 5.48319 
45.9768 30.49 34.04 0.567696 2.51353 5.72387 
106.427 22.61 28.45 1.01698 3.13034 5.34866 
164.256 16.5699 18.29 1.47921 3.64827 4.87658 
-131.497 -6.94731 36.58 -1.76081 1.09569 5.39398 
-141.497 -4.59121 31.75 -2.61611 1.89261 4.50775 
-149.679 -11.0458 27.43 -3.19762 1.74896 4.9606 
-167.293 -26.6608 20.83 -4.00361 2.36774 4.20647 
-182.641 -39.6545 10.16 -4.61194 2.26731 3.50111 
-130.046 -17.0121 35.81 -1.77042 0.230913 5.9856 
-140.571 -11.8026 30.99 -2.53065 0.0696667 5.61013 
-185.046 -47.1009 13.97 -3.47085 1.43939 4.38235 
-179.009 -57.2859 14.99 -2.05033 -0.365888 5.85549 
-207.502 -78.1179 7.37 -1.13768 -1.05996 6.07451 
-212.375 -75.4151 7.37 -2.55824 0.76411 4.43746 
-217.504 -78.8121 4.06 -3.97709 0.133815 2.66797 
-218.644 -77.1922 -0 -4.35072 1.18781 1.49012e-008 
-192.496 -47.7563 -0 -5.18233 3.31262 2.98023e-008 
-189.516 -45.706 5.08 -4.87872 2.7682 2.7025 
-151.582 -24.6449 30.48 -1.60309 0.829601 5.87194 
-143.585 -17.4122 30.73 -2.26016 1.2575 5.67811 
-150.797 -27.5198 30.73 -2.07593 0.696848 5.84701 
-164.589 -30.9595 26.42 -2.80682 0.647798 4.89609 
-161.742 -36.5444 25.91 -2.26298 -1.00603 5.74445 
-175.528 -61.3983 16.26 -2.74167 0.531639 5.4605 
-201.257 -79.6503 8.38 -1.9199 0.273461 5.8018 
-156.07 -47.9834 27.0472 -2.78981 -0.638745 5.58368 
-145.948 -33.532 34.54 -1.80706 -0.00396436 5.60038 
-123.819 -43.2679 34.8 -1.0485 -2.33414 5.72285 
-154.001 -53.7546 27.43 -1.4242 -1.8027 5.6423 
-140.444 -28.631 34.8 -1.71875 1.19492 5.90666 
-137.654 -19.6913 34.54 -2.01102 1.16234 5.7102 
-124.874 -31.4599 38.61 -1.65943 -0.638468 5.92238 
-174.434 -66.5867 18.29 -2.19581 -0.207072 5.65143 
-197.692 -82.7562 10.92 -0.967567 -1.32309 5.12129 
-151.733 -75.6075 17.02 -0.555239 -4.20291 3.19516 
-115.517 -69.1944 22.35 0.0588617 -4.70726 3.14691 
-169.266 -74.9232 10.16 0.726057 -5.228 3.09286 
-174.22 -70.1767 17.27 0.379949 -3.21436 5.00399 
-85.3976 -50.2836 43.18 -2.04326 -1.40277 5.38124 
-84.4543 -60.3061 35.05 -0.306348 -5.30687 2.53565 
-120.485 -30.8011 40.39 -1.53187 -0.674912 5.68866 
-79.8648 -20.4091 49.28 -0.901604 0.146996 5.96175 
-113.95 -13.5029 40.13 -1.02975 0.83618 6.08732 
-111.861 -0.681808 36.58 -1.08434 2.26401 5.75058 
-81.1975 3.40301 42.67 -1.25237 2.22838 5.66824 
-49.0066 10.4114 46.23 -0.581959 2.19597 5.67802 
-39.1902 -15.6409 51.05 -0.10469 -0.289692 6.10793 
-0.003174 6.52901 48.01 0.130787 1.76887 5.92388 
5.07684 -18.79 51.05 0.169301 -0.746011 6.02571 
48.0069 5.08998 46.23 0.434688 1.82443 5.88483 
50.0368 -18.54 49.02 0.239237 -0.609201 6.0891 
103.887 -1.01003 43.94 0.840053 1.73953 5.67481 
103.377 -27.93 44.7 0.913906 -1.45937 5.72748 
162.713 -4.68642 33.02 1.38099 1.2161 5.52047 
161.418 -29.1936 28.45 1.1938 -2.0027 5.778 
201.173 -11.4762 23.37 1.66229 0.929211 5.72071 
199.07 -36.0188 21.84 1.17405 -2.2747 5.27942 
228.462 -21.144 13.97 1.62998 0.205109 6.05475 
226.755 -36.3306 14.22 1.13946 -1.87456 5.61198 
248.461 -25.7437 9.91 -0.117074 0.836697 6.04797 
244.936 -38.0996 10.67 -0.343332 -1.58438 5.87067 
272.517 -27.8257 18.29 0.178006 3.72763 4.39465 
-46.2082 -47.9307 41.15 0.801008 -3.6243 4.14121 
6.60684 -52.83 37.59 0.0273059 -4.13506 3.87478 
47.2407 -51.7213 38.1 0.149687 -3.94454 3.95229 
98.2946 -53.7956 30.99 0.628682 -4.48626 3.39608 
159.893 -50.2115 17.27 0.775081 -4.60478 3.54648 
198.869 -48.7716 9.65 0.843686 -4.95373 3.58797 
225.217 -46.7559 7.11 0.542293 -4.49631 4.16116 
255.505 -47.8636 5.59 -0.526216 -5.31283 2.82585 
269.553 -46.439 14.4098 -0.978878 -5.14808 1.88818 
-59.3871 -63.4949 73.66 -2.02741 1.11261 3.1043 
-60.3755 -65.289 71.37 -1.95735 -3.46385 0.671473 
-36.4372 -57.3474 64.52 0.278613 0.197113 -0.204734 
-14.1603 -68.6657 77.22 0.0982878 -0.0081389 0.00380987 
-28.5625 -69.7239 80.77 0.307459 -0.303526 3.09781 
-48.6024 -66.9418 80.01 -0.923747 0.327992 3.28472 
3.04684 -66.03 0 -0.0721767 -5.8538 -2.98023e-008 
-44.9812 -63.837 -0 0.451094 -5.98817 5.96046e-008 
95.5489 -61.4662 0 0.351045 -6.0455 1.49012e-008 
160.263 -54.9437 0 0.476174 -6.07457 0 
223.603 -50.9465 0 0.488923 -5.51582 7.45058e-008 
256.815 -49.4901 0 0.322405 -5.92697 0 
-111.173 -72.1041 -0 0.873004 -6.15621 -5.21541e-008 
-75.903 -67.8903 -0 0.860043 -6.05264 5.96046e-008 
-144.121 -79.0496 -0 0.553967 -5.87791 2.98023e-008 
-166.644 -77.1781 -0 0.70342 -6.11465 -1.49012e-008 
-192.488 -87.5135 -0 2.11158 -5.58609 0 
-195.413 -85.9961 7.87 1.41624 -4.78845 3.31264 
-211.887 -94.0596 -0 -1.23317 -3.75381 0 
-209.426 -91.9762 4.57 -0.278629 -4.17819 3.20977 
335.215 -50.5883 86.61 0.0467075 -0.000705779 0.0347742 
299.024 -50.8502 73.15 -2.00509 2.34495 3.21938 
325.863 -47.8838 63.25 0.30773 0.0279396 -0.0622672 
303.063 -37.0138 9.65 1.36562 5.93395 1.41592 
283.386 -33.6409 20.905 1.47357 5.37808 2.72213 
294.864 -33.7974 0 2.53348 5.65631 -2.98023e-008 
314.287 -37.5684 5.84 0.690618 0.112882 -0.341171 
305.186 -37.3048 0 2.2948 -0.527748 2.98023e-007 
273.239 -36.2533 24.13 -2.90969 2.41017 3.94265 
-215.414 -84.3341 3.81 -4.45845 -0.895449 3.43042 
-215.901 -84.0427 -0 -6.08798 -1.25122 -4.47035e-008 
-214.061 -89.5441 4.83 -2.80481 -2.07732 3.24817 
-215.898 -90.164 -0 -4.23767 -2.35315 -2.98023e-008 
-28.4185 -70.5732 79.25 0.134432 -4.88405 -0.341841 
-48.336 -68.8114 78.23 -0.961143 -4.29706 0.496091 
105.667 93.73 -0 0.958336 -0.435022 0 
46.2268 -64.3426 0 0.263259 -5.94164 -5.96046e-008 
198.177 -53.3151 0 0.563507 -5.70017 0 
271.799 -47.9189 0 1.1531 -6.002 8.9407e-008 
299.219 -53.4238 73.15 -1.32925 -2.58913 1.65737 
282.161 -48.756 52.32 -2.59204 -2.82495 1.12605 
282.01 -44.364 52.32 -2.57524 2.58226 2.00895 
319.444 -42.6443 21.59 0.606057 -0.0374318 -0.003506 
-130.919 18.4921 -0 -3.10374 5.19587 4.17233e-007 
39.3669 98.81 -6.1 -1.21773 2.65087 -4.83189 
-1.52316 64.52 -8.13 -1.3472 4.68571 -3.66282 
68.0768 113.04 -3.56 -0.350232 2.53079 -5.17204 
98.0468 114.05 -2.06233 0.604622 1.42645 -5.85181 
96.7768 54.87 -6.5171 2.68837 3.18642 -4.50802 
72.1368 84.08 -6.63335 1.01981 0.604051 -6.12261 
57.1469 62.74 -11.68 0.63955 2.68811 -5.41893 
82.8069 95.76 -4.01288 0.816054 0.171843 -6.20527 
-179.36 -18.5136 -7.62 -4.10794 2.74657 -2.80387 
-158.945 -2.88046 -13.97 -3.52912 3.95196 -2.62986 
-132.665 15.8376 -5.33 -3.16052 5.20814 -1.52902 
-131.827 13.721 -13.97 -3.04917 5.08231 -2.01933 
-93.1038 34.9774 -18.29 -2.30257 4.62254 -2.97478 
-48.5549 52.6792 -22.35 -1.09495 4.26933 -3.27363 
-4.57315 49.54 -24.64 -0.0629352 3.95543 -4.80375 
53.5968 48.01 -26.67 0.644427 3.29331 -5.00831 
109.727 36.07 -20.32 1.61543 3.93187 -4.31524 
164.598 24.1658 -11.68 1.66155 4.82257 -3.29457 
204.679 3.80705 -14.73 1.85006 3.59671 -4.64178 
230.871 -8.85446 -11.94 1.8083 2.22485 -5.41184 
255.28 -16.9703 -7.87 0.565289 2.85564 -5.44555 
274.109 -20.2412 -9.65 2.29296 4.16899 -3.55658 
281.052 -26.8431 -9.37588 3.25673 4.65804 -2.54451 
-134.884 7.60313 -22.35 -2.64217 4.507 -3.33332 
-118.785 4.99101 -32.77 -1.5362 3.34753 -4.98037 
-87.9324 20.5296 -31.7052 -1.48358 3.29126 -5.10443 
-49.6027 33.9115 -32 -0.676882 3.04958 -5.43962 
-4.57315 31.76 -35.81 -0.0404645 3.03361 -5.48319 
45.9768 30.49 -34.04 0.567696 2.51353 -5.72387 
106.427 22.61 -28.45 1.01698 3.13034 -5.34866 
164.256 16.5699 -18.29 1.47921 3.64827 -4.87658 
-141.497 -4.59121 -31.75 -2.61611 1.89261 -4.50775 
-131.497 -6.94731 -36.58 -1.76081 1.09569 -5.39398 
-149.679 -11.0458 -27.43 -3.19762 1.74896 -4.9606 
-167.293 -26.6608 -20.83 -4.00361 2.36774 -4.20647 
-182.641 -39.6545 -10.16 -4.61194 2.26731 -3.50111 
-140.571 -11.8026 -30.99 -2.53065 0.0696665 -5.61013 
-130.046 -17.0121 -35.81 -1.77042 0.230913 -5.9856 
-185.046 -47.1009 -13.97 -3.47085 1.43939 -4.38235 
-212.375 -75.4151 -7.37 -2.55824 0.76411 -4.43746 
-207.502 -78.1179 -7.37 -1.13768 -1.05996 -6.07451 
-179.009 -57.2859 -14.99 -2.05033 -0.365888 -5.85549 
-189.516 -45.706 -5.08 -4.87872 2.7682 -2.7025 
-217.504 -78.8121 -4.06 -3.97709 0.133815 -2.66797 
-150.797 -27.5198 -30.73 -2.07593 0.696848 -5.84701 
-143.585 -17.4122 -30.73 -2.26016 1.2575 -5.67811 
-151.582 -24.6449 -30.48 -1.60309 0.829601 -5.87194 
-164.589 -30.9595 -26.42 -2.80682 0.647798 -4.89609 
-161.742 -36.5444 -25.91 -2.26298 -1.00603 -5.74445 
-201.257 -79.6503 -8.38 -1.99613 -0.0958241 -5.82995 
-175.528 -61.3983 -16.26 -2.74167 0.531639 -5.4605 
-156.07 -47.9834 -27.0472 -2.78981 -0.638744 -5.58368 
-145.948 -33.532 -34.54 -1.80706 -0.00396425 -5.60038 
-154.001 -53.7546 -27.43 -1.36891 -1.69342 -5.7097 
-123.819 -43.2679 -34.8 -1.0485 -2.33414 -5.72286 
-140.444 -28.631 -34.8 -1.71875 1.19492 -5.90666 
-137.654 -19.6913 -34.54 -2.01102 1.16234 -5.7102 
-124.874 -31.4599 -38.61 -1.65943 -0.638468 -5.92238 
-197.692 -82.7562 -10.92 -1.13995 -1.34399 -5.02913 
-174.434 -66.5867 -18.29 -2.19581 -0.207072 -5.65143 
-136.128 -47.3426 -31.75 -0.620751 -2.28783 -5.79427 
-151.733 -75.6075 -17.02 -0.212544 -4.43212 -3.17112 
-115.517 -69.1944 -22.35 0.0588617 -4.70726 -3.14691 
-174.22 -70.1767 -17.27 -0.344409 -3.18927 -5.13592 
-169.266 -74.9232 -10.16 0.390232 -5.64553 -2.44091 
-84.4543 -60.3061 -35.05 -0.306349 -5.30687 -2.53565 
-85.3976 -50.2836 -43.18 -2.04326 -1.40277 -5.38124 
-79.8648 -20.4091 -49.28 -0.901604 0.146996 -5.96175 
-120.485 -30.8011 -40.39 -1.53187 -0.674912 -5.68866 
-113.95 -13.5029 -40.13 -1.02975 0.83618 -6.08732 
-111.861 -0.681808 -36.58 -1.08434 2.26401 -5.75058 
-81.1975 3.40301 -42.67 -1.25237 2.22838 -5.66824 
-39.1902 -15.6409 -51.05 -0.10469 -0.289692 -6.10793 
-49.0066 10.4114 -46.23 -0.581959 2.19597 -5.67802 
5.07684 -18.79 -51.05 0.169301 -0.746011 -6.02571 
-0.003174 6.52901 -48.01 0.130787 1.76887 -5.92388 
50.0368 -18.54 -49.02 0.239237 -0.609201 -6.0891 
48.0069 5.08998 -46.23 0.434688 1.82443 -5.88483 
103.377 -27.93 -44.7 0.913906 -1.45937 -5.72748 
103.887 -1.01003 -43.94 0.840053 1.73953 -5.67481 
161.418 -29.1936 -28.45 1.1938 -2.0027 -5.778 
162.713 -4.68642 -33.02 1.38099 1.2161 -5.52047 
199.07 -36.0188 -21.84 1.17405 -2.2747 -5.27942 
201.173 -11.4762 -23.37 1.66229 0.929211 -5.72071 
226.755 -36.3306 -14.22 1.13946 -1.87456 -5.61198 
228.462 -21.144 -13.97 1.62998 0.205109 -6.05475 
244.936 -38.0996 -10.67 -0.343332 -1.58438 -5.87067 
248.461 -25.7437 -9.91 -0.117074 0.836697 -6.04797 
272.517 -27.8257 -18.29 0.178006 3.72763 -4.39465 
-46.2082 -47.9307 -41.15 0.801008 -3.6243 -4.14121 
6.60684 -52.83 -37.59 0.0273059 -4.13506 -3.87478 
47.2407 -51.7213 -38.1 0.149687 -3.94454 -3.95229 
98.2946 -53.7956 -30.99 0.628682 -4.48626 -3.39608 
159.893 -50.2115 -17.27 0.775081 -4.60478 -3.54648 
198.869 -48.7716 -9.65 0.843686 -4.95373 -3.58797 
225.217 -46.7559 -7.11 0.542293 -4.49631 -4.16116 
255.505 -47.8636 -5.59 -0.526217 -5.31283 -2.82585 
269.553 -46.439 -14.4098 -0.978878 -5.14808 -1.88818 
-60.3755 -65.289 -71.37 -1.95735 -3.46385 -0.671473 
-59.3871 -63.4949 -73.66 -2.02741 1.11261 -3.1043 
-36.4372 -57.3474 -64.52 0.278613 0.197113 0.204734 
-14.1603 -68.6657 -77.22 0.0982878 -0.00813895 -0.00380981 
-48.6024 -66.9418 -80.01 -0.923747 0.327992 -3.28472 
-28.5625 -69.7239 -80.77 0.307459 -0.303526 -3.09781 
-195.413 -85.9961 -7.87 1.41624 -4.78845 -3.31264 
-209.426 -91.9762 -4.57 -0.264151 -3.76813 -3.35807 
325.863 -47.8838 -63.25 0.30773 0.0279396 0.0622672 
299.024 -50.8502 -73.15 -2.00509 2.34495 -3.21938 
335.215 -50.5883 -86.61 0.0467075 -0.000705779 -0.0347742 
283.386 -33.6409 -20.905 1.47357 5.37808 -2.72213 
303.063 -37.0138 -9.65 1.36562 5.93395 -1.41592 
314.287 -37.5684 -5.84 0.690618 0.112882 0.341171 
273.239 -36.2533 -24.13 -2.90969 2.41017 -3.94265 
-215.414 -84.3341 -3.81 -4.45845 -0.895449 -3.43042 
-214.061 -89.5441 -4.83 -2.62053 -2.0457 -3.28195 
-48.336 -68.8114 -78.23 -0.961143 -4.29706 -0.496091 
-28.4185 -70.5732 -79.25 0.134432 -4.88405 0.341841 
282.01 -44.364 -52.32 -2.57524 2.58226 -2.00895 
282.161 -48.756 -52.32 -2.59204 -2.82495 -1.12605 
299.219 -53.4238 -73.15 -1.32925 -2.58913 -1.65737 
319.444 -42.6443 -21.59 0.606057 -0.0374318 0.003506 
117.347 105.42 0 0.379967 -0.101291 0 
-136.128 -47.3426 31.75 -0.620751 -2.28783 5.79427 
3 3 2 1 
3 1 0 3 
3 5 4 2 
3 2 3 5 
3 6 4 5 
3 5 7 6 
3 8 6 7 
3 11 10 9 
3 12 13 3 
3 3 0 12 
3 14 5 3 
3 3 13 14 
3 7 5 14 
3 17 16 15 
3 19 18 15 
3 15 16 19 
3 21 160 20 
3 21 23 22 
3 23 21 20 
3 24 21 22 
3 22 25 24 
3 0 1 24 
3 24 25 0 
3 26 0 25 
3 27 12 0 
3 0 26 27 
3 27 28 9 
3 9 12 27 
3 11 9 28 
3 30 11 28 
3 28 29 30 
3 31 30 29 
3 29 32 31 
3 33 31 32 
3 32 34 33 
3 35 33 34 
3 34 36 35 
3 37 35 36 
3 36 38 37 
3 39 37 38 
3 38 40 39 
3 23 19 41 
3 22 23 41 
3 42 22 41 
3 42 43 22 
3 25 22 43 
3 43 44 25 
3 26 25 44 
3 44 45 26 
3 27 26 45 
3 45 46 27 
3 28 27 46 
3 46 47 28 
3 48 29 28 
3 28 47 48 
3 32 29 48 
3 50 49 42 
3 42 41 50 
3 19 51 50 
3 50 41 19 
3 52 51 19 
3 19 16 52 
3 53 52 16 
3 50 55 54 
3 54 49 50 
3 51 55 50 
3 53 56 52 
3 59 58 57 
3 57 56 59 
3 62 61 60 
3 60 63 62 
3 17 63 53 
3 53 16 17 
3 62 63 17 
3 65 51 64 
3 64 66 65 
3 51 52 67 
3 67 64 51 
3 66 64 67 
3 67 68 66 
3 57 68 67 
3 67 56 57 
3 69 57 58 
3 58 70 69 
3 71 68 57 
3 57 69 71 
3 72 66 68 
3 283 73 72 
3 72 71 74 
3 56 53 63 
3 65 66 75 
3 76 65 75 
3 54 76 75 
3 77 54 75 
3 72 77 75 
3 66 72 75 
3 69 70 79 
3 79 78 69 
3 71 69 78 
3 78 74 71 
3 283 74 80 
3 283 81 73 
3 81 283 80 
3 82 80 74 
3 74 83 82 
3 84 73 81 
3 81 85 84 
3 87 86 73 
3 73 84 87 
3 86 77 73 
3 88 54 77 
3 77 86 88 
3 89 42 49 
3 89 49 88 
3 88 49 54 
3 90 88 86 
3 86 87 90 
3 91 90 87 
3 87 92 91 
3 93 91 92 
3 92 94 93 
3 95 93 94 
3 94 96 95 
3 97 95 96 
3 96 98 97 
3 99 97 98 
3 98 100 99 
3 101 99 100 
3 100 102 101 
3 103 101 102 
3 102 104 103 
3 105 103 104 
3 104 106 105 
3 89 88 90 
3 43 89 90 
3 42 89 43 
3 44 43 90 
3 90 91 44 
3 45 44 91 
3 91 93 45 
3 46 45 93 
3 93 95 46 
3 47 46 95 
3 95 97 47 
3 48 47 97 
3 97 99 48 
3 32 48 99 
3 99 101 32 
3 34 32 101 
3 101 103 34 
3 36 34 103 
3 103 105 36 
3 107 38 36 
3 36 105 107 
3 40 38 107 
3 92 87 84 
3 84 108 92 
3 94 92 108 
3 108 109 94 
3 96 94 109 
3 109 110 96 
3 98 96 110 
3 110 111 98 
3 100 98 111 
3 111 112 100 
3 102 100 112 
3 112 113 102 
3 104 102 113 
3 113 114 104 
3 106 104 114 
3 114 115 106 
3 116 106 115 
3 117 84 85 
3 85 118 117 
3 108 84 117 
3 117 119 108 
3 121 120 119 
3 121 119 122 
3 122 119 117 
3 123 109 108 
3 108 124 123 
3 126 112 111 
3 111 125 126 
3 128 115 114 
3 114 127 128 
3 130 85 81 
3 81 129 130 
3 124 108 85 
3 85 130 124 
3 129 81 80 
3 80 131 129 
3 131 80 82 
3 82 132 131 
3 132 82 134 
3 134 133 132 
3 82 83 134 
3 136 135 133 
3 133 134 136 
3 139 138 137 
3 40 141 140 
3 140 142 40 
3 142 140 143 
3 143 144 142 
3 106 145 107 
3 107 105 106 
3 116 145 106 
3 59 56 63 
3 63 60 59 
3 61 147 146 
3 146 60 61 
3 59 60 146 
3 146 58 59 
3 74 78 83 
3 79 134 83 
3 83 78 79 
3 134 79 136 
3 148 136 79 
3 79 70 148 
3 58 146 148 
3 148 70 58 
3 149 135 136 
3 136 148 149 
3 146 147 149 
3 149 148 146 
3 55 51 65 
3 76 54 55 
3 73 77 72 
3 56 67 52 
3 65 76 55 
3 151 150 121 
3 121 122 151 
3 151 122 117 
3 117 118 151 
3 120 121 150 
3 108 119 118 
3 118 85 108 
3 119 120 150 
3 119 151 118 
3 150 151 119 
3 10 13 12 
3 12 9 10 
3 10 152 14 
3 14 13 10 
3 7 152 282 
3 125 111 110 
3 110 153 125 
3 153 110 109 
3 109 123 153 
3 127 114 113 
3 113 154 127 
3 112 126 154 
3 154 113 112 
3 115 128 155 
3 155 116 115 
3 157 156 138 
3 138 158 157 
3 157 158 145 
3 145 116 157 
3 137 138 156 
3 40 142 39 
3 116 155 144 
3 116 144 143 
3 143 159 116 
3 116 159 157 
3 157 159 139 
3 139 156 157 
3 156 139 137 
3 158 138 139 
3 139 159 158 
3 159 143 140 
3 140 158 159 
3 158 140 141 
3 158 141 145 
3 141 40 107 
3 107 145 141 
3 18 19 20 
3 20 160 18 
3 19 23 20 
3 1 2 161 
3 161 162 1 
3 2 4 163 
3 163 161 2 
3 163 4 6 
3 6 164 163 
3 164 6 8 
3 165 10 11 
3 167 162 161 
3 161 166 167 
3 161 163 168 
3 168 166 161 
3 168 163 164 
3 15 169 17 
3 15 18 170 
3 170 169 15 
3 171 160 21 
3 21 172 171 
3 172 21 173 
3 173 21 24 
3 24 174 173 
3 24 1 162 
3 162 174 24 
3 174 162 175 
3 162 167 176 
3 176 175 162 
3 176 167 165 
3 165 177 176 
3 177 165 11 
3 177 11 30 
3 30 178 177 
3 178 30 31 
3 31 179 178 
3 179 31 33 
3 33 180 179 
3 180 33 35 
3 35 181 180 
3 181 35 37 
3 37 182 181 
3 182 37 39 
3 39 183 182 
3 184 170 172 
3 173 185 184 
3 173 184 172 
3 173 186 185 
3 186 173 174 
3 174 187 186 
3 187 174 175 
3 175 188 187 
3 188 175 176 
3 176 189 188 
3 189 176 177 
3 177 190 189 
3 177 178 191 
3 191 190 177 
3 191 178 179 
3 185 193 192 
3 192 184 185 
3 192 194 170 
3 170 184 192 
3 170 194 195 
3 195 169 170 
3 169 195 196 
3 198 197 192 
3 192 193 198 
3 192 197 194 
3 195 199 196 
3 202 201 200 
3 200 199 202 
3 204 61 62 
3 62 203 204 
3 196 203 17 
3 17 169 196 
3 17 203 62 
3 207 194 206 
3 206 205 207 
3 208 195 194 
3 194 207 208 
3 208 207 205 
3 205 209 208 
3 208 209 202 
3 202 199 208 
3 201 202 211 
3 211 210 201 
3 202 209 212 
3 212 211 202 
3 209 205 213 
3 213 221 214 
3 214 212 213 
3 203 196 199 
3 216 205 206 
3 216 206 217 
3 216 217 198 
3 216 198 218 
3 216 218 213 
3 216 213 205 
3 219 210 211 
3 211 220 219 
3 220 211 212 
3 212 214 220 
3 222 214 221 
3 221 223 222 
3 223 221 215 
3 222 225 224 
3 224 214 222 
3 223 215 227 
3 227 226 223 
3 215 229 228 
3 228 227 215 
3 215 218 229 
3 218 198 230 
3 230 229 218 
3 193 230 198 
3 230 193 231 
3 185 231 193 
3 229 230 232 
3 232 228 229 
3 228 232 234 
3 234 233 228 
3 233 234 236 
3 236 235 233 
3 235 236 238 
3 238 237 235 
3 237 238 240 
3 240 239 237 
3 239 240 242 
3 242 241 239 
3 241 242 244 
3 244 243 241 
3 243 244 246 
3 246 245 243 
3 245 246 248 
3 248 247 245 
3 232 230 231 
3 232 231 186 
3 186 231 185 
3 232 186 187 
3 187 234 232 
3 234 187 188 
3 188 236 234 
3 236 188 189 
3 189 238 236 
3 238 189 190 
3 190 240 238 
3 240 190 191 
3 191 242 240 
3 242 191 179 
3 179 244 242 
3 244 179 180 
3 180 246 244 
3 246 180 181 
3 181 248 246 
3 249 248 181 
3 181 182 249 
3 249 182 183 
3 227 228 233 
3 233 250 227 
3 250 233 235 
3 235 251 250 
3 251 235 237 
3 237 252 251 
3 252 237 239 
3 239 253 252 
3 253 239 241 
3 241 254 253 
3 254 241 243 
3 243 255 254 
3 255 243 245 
3 245 256 255 
3 256 245 247 
3 247 257 256 
3 257 247 258 
3 226 227 260 
3 260 259 226 
3 260 227 250 
3 250 261 260 
3 263 260 261 
3 263 261 264 
3 264 261 262 
3 250 251 123 
3 123 124 250 
3 253 254 126 
3 126 125 253 
3 256 257 128 
3 128 127 256 
3 223 226 130 
3 130 129 223 
3 226 250 124 
3 124 130 226 
3 222 223 129 
3 129 131 222 
3 225 222 131 
3 131 132 225 
3 265 225 132 
3 132 133 265 
3 265 224 225 
3 133 135 266 
3 266 265 133 
3 269 268 267 
3 271 270 183 
3 183 142 271 
3 272 271 142 
3 142 144 272 
3 249 273 247 
3 247 248 249 
3 247 273 258 
3 203 199 200 
3 200 204 203 
3 274 147 61 
3 61 204 274 
3 274 204 200 
3 200 201 274 
3 224 220 214 
3 224 265 219 
3 219 220 224 
3 266 219 265 
3 266 275 210 
3 210 219 266 
3 275 274 201 
3 201 210 275 
3 266 135 149 
3 149 275 266 
3 149 147 274 
3 274 275 149 
3 206 194 197 
3 197 198 217 
3 213 218 215 
3 195 208 199 
3 197 217 206 
3 264 277 276 
3 276 263 264 
3 260 263 276 
3 276 259 260 
3 277 264 262 
3 259 261 250 
3 250 226 259 
3 261 276 277 
3 276 261 259 
3 262 261 277 
3 167 166 10 
3 10 165 167 
3 168 152 10 
3 10 166 168 
3 152 164 282 
3 164 152 168 
3 252 253 125 
3 125 153 252 
3 251 252 153 
3 153 123 251 
3 255 256 127 
3 127 154 255 
3 154 126 254 
3 254 255 154 
3 155 128 257 
3 257 258 155 
3 268 280 279 
3 279 278 268 
3 273 278 279 
3 279 258 273 
3 280 268 269 
3 39 142 183 
3 144 155 258 
3 258 281 272 
3 281 258 279 
3 144 258 272 
3 267 281 279 
3 279 280 267 
3 269 267 280 
3 267 268 278 
3 278 281 267 
3 271 272 281 
3 281 278 271 
3 270 271 278 
3 273 270 278 
3 249 183 270 
3 270 273 249 
3 171 170 18 
3 18 160 171 
3 171 172 170 
3 213 212 209 
3 68 71 72 
3 152 7 14 
3 7 282 8 
3 282 164 8 
3 221 213 215 
3 283 72 74 
