ply
format ascii 1.0
comment VCGLIB generated
element vertex 42
property float x
property float y
property float z
property float nx
property float ny
property float nz
element face 80
property list uchar int vertex_indices
end_header
0 0 -1 -6.4075e-006 2.98023e-008 -5.66996 
0.425323 -0.309011 -0.850654 2.38899 -1.73569 -4.77802 
-0.162456 -0.499995 -0.850654 -0.912504 -2.80842 -4.77802 
0.723607 -0.525725 -0.44722 4.10282 -2.98084 -2.5357 
0.850648 0 -0.525736 4.77799 -2.98023e-008 -2.95299 
-0.52573 0 -0.850652 -2.95296 5.96046e-008 -4.778 
-0.162456 0.499995 -0.850654 -0.912504 2.80842 -4.77802 
0.425323 0.309011 -0.850654 2.38899 1.73569 -4.77802 
0.951058 -0.309013 0 5.34196 -1.7357 -4.02331e-007 
-0.276388 -0.850649 -0.44722 -1.56711 -4.82313 -2.53571 
0.262869 -0.809012 -0.525738 1.4765 -4.54412 -2.95299 
0 -1 0 -2.98023e-008 -5.61686 -1.49012e-008 
-0.894426 0 -0.447216 -5.07135 2.98023e-008 -2.53569 
-0.688189 -0.499997 -0.525736 -3.86547 -2.80843 -2.95298 
-0.951058 -0.309013 0 -5.34196 -1.7357 4.02331e-007 
-0.276388 0.850649 -0.44722 -1.56711 4.82313 -2.53571 
-0.688189 0.499997 -0.525736 -3.86547 2.80843 -2.95298 
-0.587786 0.809017 0 -3.30151 4.54413 -2.80142e-006 
0.723607 0.525725 -0.44722 4.10282 2.98084 -2.5357 
0.262869 0.809012 -0.525738 1.4765 4.54412 -2.95299 
0.587786 0.809017 0 3.30151 4.54413 2.83122e-006 
0.587786 -0.809017 0 3.30151 -4.54413 2.80142e-006 
-0.587786 -0.809017 0 -3.30151 -4.54413 -2.83122e-006 
-0.951058 0.309013 0 -5.34196 1.7357 3.8743e-007 
0 1 0 -5.21541e-008 5.61686 5.96046e-008 
0.951058 0.309013 0 5.34196 1.7357 -4.17233e-007 
0.276388 -0.850649 0.44722 1.56711 -4.82313 2.53571 
0.688189 -0.499997 0.525736 3.86547 -2.80843 2.95298 
0.162456 -0.499995 0.850654 0.912504 -2.80842 4.77802 
-0.723607 -0.525725 0.44722 -4.10282 -2.98084 2.5357 
-0.262869 -0.809012 0.525738 -1.4765 -4.54412 2.95299 
-0.425323 -0.309011 0.850654 -2.38899 -1.73569 4.77802 
-0.723607 0.525725 0.44722 -4.10282 2.98084 2.5357 
-0.850648 0 0.525736 -4.77799 0 2.95299 
-0.425323 0.309011 0.850654 -2.38899 1.73569 4.77802 
0.276388 0.850649 0.44722 1.56711 4.82313 2.53571 
-0.262869 0.809012 0.525738 -1.4765 4.54412 2.95299 
0.162456 0.499995 0.850654 0.912504 2.80842 4.77802 
0.894426 0 0.447216 5.07135 -2.98023e-008 2.53569 
0.688189 0.499997 0.525736 3.86547 2.80843 2.95298 
0.52573 0 0.850652 2.95296 -7.45058e-008 4.778 
0 0 1 6.4671e-006 -1.49012e-008 5.66996 
3 0 1 2 
3 3 1 4 
3 0 2 5 
3 0 5 6 
3 0 6 7 
3 3 4 8 
3 9 10 11 
3 12 13 14 
3 15 16 17 
3 18 19 20 
3 3 8 21 
3 9 11 22 
3 12 14 23 
3 15 17 24 
3 18 20 25 
3 26 27 28 
3 29 30 31 
3 32 33 34 
3 35 36 37 
3 38 39 40 
3 40 37 41 
3 40 39 37 
3 39 35 37 
3 37 34 41 
3 37 36 34 
3 36 32 34 
3 34 31 41 
3 34 33 31 
3 33 29 31 
3 31 28 41 
3 31 30 28 
3 30 26 28 
3 28 40 41 
3 28 27 40 
3 27 38 40 
3 25 39 38 
3 25 20 39 
3 20 35 39 
3 24 36 35 
3 24 17 36 
3 17 32 36 
3 23 33 32 
3 23 14 33 
3 14 29 33 
3 22 30 29 
3 22 11 30 
3 11 26 30 
3 21 27 26 
3 21 8 27 
3 8 38 27 
3 20 24 35 
3 20 19 24 
3 19 15 24 
3 17 23 32 
3 17 16 23 
3 16 12 23 
3 14 22 29 
3 14 13 22 
3 13 9 22 
3 11 21 26 
3 11 10 21 
3 10 3 21 
3 8 25 38 
3 8 4 25 
3 4 18 25 
3 7 19 18 
3 7 6 19 
3 6 15 19 
3 6 16 15 
3 6 5 16 
3 5 12 16 
3 5 13 12 
3 5 2 13 
3 2 9 13 
3 4 7 18 
3 4 1 7 
3 1 0 7 
3 2 10 9 
3 2 1 10 
3 1 3 10 
