ply
format ascii 1.0
comment VCGLIB generated
element vertex 42
property float x
property float y
property float z
property float nx
property float ny
property float nz
element face 80
property list uchar int vertex_indices
end_header
0 0 -1 6.4671e-006 2.98023e-008 5.66996 
0.425323 -0.309011 -0.850654 -2.38899 1.73569 4.77802 
-0.162456 -0.499995 -0.850654 0.912504 2.80842 4.77802 
0.723607 -0.525725 -0.44722 -4.10282 2.98084 2.5357 
0.850648 0 -0.525736 -4.77799 0 2.95299 
-0.52573 0 -0.850652 2.95296 5.96046e-008 4.778 
-0.162456 0.499995 -0.850654 0.912504 -2.80842 4.77802 
0.425323 0.309011 -0.850654 -2.38899 -1.73569 4.77802 
0.951058 -0.309013 0 -5.34196 1.7357 4.32134e-007 
-0.276388 -0.850649 -0.44722 1.56711 4.82313 2.53571 
0.262869 -0.809012 -0.525738 -1.4765 4.54412 2.95299 
0 -1 0 2.98023e-008 5.61686 -2.98023e-008 
-0.894426 0 -0.447216 5.07135 5.96046e-008 2.53569 
-0.688189 -0.499997 -0.525736 3.86547 2.80843 2.95298 
-0.951058 -0.309013 0 5.34196 1.7357 -4.17233e-007 
-0.276388 0.850649 -0.44722 1.56711 -4.82313 2.53571 
-0.688189 0.499997 -0.525736 3.86547 -2.80843 2.95298 
-0.587786 0.809017 0 3.30151 -4.54413 2.83122e-006 
0.723607 0.525725 -0.44722 -4.10282 -2.98084 2.5357 
0.262869 0.809012 -0.525738 -1.4765 -4.54412 2.95299 
0.587786 0.809017 0 -3.30151 -4.54413 -2.78652e-006 
0.587786 -0.809017 0 -3.30151 4.54413 -2.80142e-006 
-0.587786 -0.809017 0 3.30151 4.54413 2.83122e-006 
-0.951058 0.309013 0 5.34196 -1.7357 -4.47035e-007 
0 1 0 -1.11759e-008 -5.61686 0 
0.951058 0.309013 0 -5.34196 -1.7357 4.17233e-007 
0.276388 -0.850649 0.44722 -1.56711 4.82313 -2.53571 
0.688189 -0.499997 0.525736 -3.86547 2.80843 -2.95298 
0.162456 -0.499995 0.850654 -0.912504 2.80842 -4.77802 
-0.723607 -0.525725 0.44722 4.10282 2.98084 -2.5357 
-0.262869 -0.809012 0.525738 1.4765 4.54412 -2.95299 
-0.425323 -0.309011 0.850654 2.38899 1.73569 -4.77802 
-0.723607 0.525725 0.44722 4.10282 -2.98084 -2.5357 
-0.850648 0 0.525736 4.77799 0 -2.95299 
-0.425323 0.309011 0.850654 2.38899 -1.73569 -4.77802 
0.276388 0.850649 0.44722 -1.56711 -4.82313 -2.53571 
-0.262869 0.809012 0.525738 1.4765 -4.54412 -2.95299 
0.162456 0.499995 0.850654 -0.912504 -2.80842 -4.77802 
0.894426 0 0.447216 -5.07135 -5.96046e-008 -2.53569 
0.688189 0.499997 0.525736 -3.86547 -2.80843 -2.95298 
0.52573 0 0.850652 -2.95296 2.98023e-008 -4.778 
0 0 1 -6.4671e-006 -2.98023e-008 -5.66996 
3 1 0 2 
3 1 3 4 
3 2 0 5 
3 5 0 6 
3 6 0 7 
3 4 3 8 
3 10 9 11 
3 13 12 14 
3 16 15 17 
3 19 18 20 
3 8 3 21 
3 11 9 22 
3 14 12 23 
3 17 15 24 
3 20 18 25 
3 27 26 28 
3 30 29 31 
3 33 32 34 
3 36 35 37 
3 39 38 40 
3 37 40 41 
3 39 40 37 
3 35 39 37 
3 34 37 41 
3 36 37 34 
3 32 36 34 
3 31 34 41 
3 33 34 31 
3 29 33 31 
3 28 31 41 
3 30 31 28 
3 26 30 28 
3 40 28 41 
3 27 28 40 
3 38 27 40 
3 39 25 38 
3 20 25 39 
3 35 20 39 
3 36 24 35 
3 17 24 36 
3 32 17 36 
3 33 23 32 
3 14 23 33 
3 29 14 33 
3 30 22 29 
3 11 22 30 
3 26 11 30 
3 27 21 26 
3 8 21 27 
3 38 8 27 
3 24 20 35 
3 19 20 24 
3 15 19 24 
3 23 17 32 
3 16 17 23 
3 12 16 23 
3 22 14 29 
3 13 14 22 
3 9 13 22 
3 21 11 26 
3 10 11 21 
3 3 10 21 
3 25 8 38 
3 4 8 25 
3 18 4 25 
3 19 7 18 
3 6 7 19 
3 15 6 19 
3 16 6 15 
3 5 6 16 
3 12 5 16 
3 13 5 12 
3 2 5 13 
3 9 2 13 
3 7 4 18 
3 1 4 7 
3 0 1 7 
3 10 2 9 
3 1 2 10 
3 3 1 10 
